<?xml version="1.0" encoding="UTF-8"?>
<svg id="Layer_2" data-name="Layer 2" xmlns="http://www.w3.org/2000/svg" viewBox="0 0 385.17 515.89">
  <defs>
    <style>
      .cls-1 {
        fill: #fffdfd;
      }

      .cls-2 {
        fill: #fffcfc;
      }

      .cls-3 {
        fill: #ed676a;
      }

      .cls-4 {
        fill: #e5252a;
      }
    </style>
  </defs>
  <g id="Layer_1-2" data-name="Layer 1">
    <g>
      <path class="cls-4" d="m71,0C31.79,0,0,31.79,0,71v373.89c0,39.21,31.79,71,71,71h243.17c39.21,0,71-31.79,71-71V148.67L236.5,0H71Z"/>
      <g>
        <path class="cls-1" d="m153.27,298.05c0-3.3,0-6.11,0-9.73,17.58.98,34.98-2.28,51.82,3.19,20.42,6.63,31.03,22.86,30.27,45.26-.9,26.24-17.23,43.32-43.95,44.98-12.42.77-24.94.13-38.14.13v-83.83m41.22,12.23c-5.84-.59-11.67-1.19-17.63-1.8v52.74c16.79,2.53,30.2-4.05,33.37-16.6,3.13-12.42,1.35-28.99-15.73-34.34Z"/>
        <path class="cls-2" d="m114.89,288.74c17.92,1.69,28.83,13.43,28.52,30.26-.31,16.77-11.8,28.34-29.2,29.14-6.11.28-12.25.05-18.95.05v33.59h-23.7v-93.07c14.38,0,28.63,0,43.33.04m2.74,23.82c-6.63-6.47-14.68-2.53-22.15-3.65v19.08c4.6,0,8.89.09,13.17-.02,9.16-.24,12.91-6.15,8.98-15.42Z"/>
        <path class="cls-2" d="m280.61,308.93h-8.84v14.92h33.4v19.94h-33.71v37.94h-23.68v-92.97h65.82v20.16h-33Z"/>
      </g>
      <polygon class="cls-3" points="236.5 148.67 385.17 148.67 236.5 0 236.5 148.67"/>
    </g>
  </g>
</svg>