<?xml version="1.0" encoding="UTF-8"?>
<svg id="Layer_2" data-name="Layer 2" xmlns="http://www.w3.org/2000/svg" viewBox="0 0 295.84 71.02">
  <defs>
    <style>
      .cls-1 {
        fill: #fffffb;
      }
    </style>
  </defs>
  <g id="design">
    <g>
      <path class="cls-1" d="m109.8,39.82c-2.94-.69-12.5-3.33-11.67-6.94.83-3.61,1-5.42,1.78-4.89s2.61,3.61,8.89,1.94c6.28-1.67,25.89-9.92,29.33-19.17,3.44-9.25-4.83-12.61-12.33-9.81-7.5,2.81-21,6.28-28,19.72-7,13.44.56,20.44.56,20.44,0,0-28.64,6.08-28.89,3.56s8.75-17.3,12.58-21.55c3.83-4.25,13.67-15.78,10.89-17.72-2.78-1.94-4.03-2.58-8.17,4.5-4.14,7.08-14.33,19.67-15.92,22.5s-5.64,9.39-6,12.5c-.36,3.11-12.72,3.33-12.67,2.5,0,0,14.53-17.53,15.72-24.5,1.19-6.97,1.58-14.92-13.14-13.55-14.72,1.36-36,21.44-36,21.44,0,0-6.86,8.11-6.36,9.25.5,1.14,8.64-5.53,14.94-9.89,6.31-4.36,21.83-12.83,26.94-12.94,5.11-.11,11-1.22,9,4.83-2,6.06-14.97,22.03-15.75,22.89s-5.17,5.97-5.78,6.22-15.22,3.56-15.22,3.56c0,0,10.28-8.64,11.11-11.39.83-2.75-1.33-4.06-1.56-3.5-.22.56-15.86,10.44-19.05,11.03-2.25,1-10.47,4.31-10.44.17.03-4.14,2.44-8.33,2.44-8.33,0,0-8.47,4.67-6.72,15.28.89,3.81,2.39,4.28,2.39,4.28,0,0-5.39,6.94-1,8.64,4.39,1.69,29.86-12.19,54.16-14.67,24.3-2.47,40.94-5.78,49.69-5.72,8.75.06,7.17-9.97,4.22-10.67Zm-7.56-18.03s3.53-9.64,17.17-13.67c13.64-4.03,15.05-2.72,15,0-.06,2.72-3.47,8.56-17.61,14.83-14.14,6.28-15.38.51-14.55-1.17Z"/>
      <path class="cls-1" d="m294.32,41.71c-5.11-2.22-6.61-2.72-7.78-1.44-1.17,1.28-13.03,8.94-12.61,7.22.42-1.72,2.33-3.89,3.33-4.72,1-.83.56-3.86-2.39-3-2.94.86-5.31,2.25-6.22,3.28-.92,1.03-2.75-.31-5.94.39-3.19.69-5.5,1.31-3-.94,2.5-2.25,5.25-3.69,4.06-5.11-1.19-1.42-3.97-3.78-5.56-2.39s-3.08,4.44-4.06,5.06c-.97.61-4.61,1.75-6.22,1.94s-2.72.19-.94-1.11c1.78-1.31,3.83-2.58,4.11-3.44.28-.86.42-1.75-1.33-1.83-1.75-.08-8.94,5.08-11.11,4.69-2.17-.39-3.03.19-2.17-.83.86-1.03,2.39-1.58,2.33-2.78-.06-1.19-.14-2.39-1.72-2.44s-1.58-.64-3.11.22-3.25.19-5.89,2.28-3.83,3.58-4.28,2.56c-.44-1.03.31-1.75.5-2.72s1.31-1.44-1.33-1.78c-2.64-.33-3.11-.25-3.83.39-.72.64-3.86,2.92-5.75,3.19s-2.94.81-2.39.11c.56-.69,3.42-2.97,3.5-4.67.08-1.69,1.67-2.75-1.67-1.67s-3.86.75-4.72,1.67c-.86.92-8.78,9.81-14.92,10.44-6.14.64,1.75-2.97,5.33-4.72,3.58-1.75,7.53-10.14,2-11.33-5.53-1.19-10.83-.44-15.64,2.97,0,0-9.47,6.58-10.72,8.06-1.25,1.47-4.53,3.89-1.17,8.11s4.83,1.31,7.5,1.61c2.67.31,1.72.22,2.72,1.22,1,1,6.92,2.5,9.72,0,2.81-2.5,6.22-4.64,7.06-4.56.83.08-2.33,2-2.33,3.28s.11,4.53,3.33,3.28c3.22-1.25,6-4.81,8.22-6.44,2.22-1.64,3-3.42,4.06-3.39s1.08.86.44,2.44c-.64,1.58-2.25,2.41-1.5,3.31.75.91,4.69,1.31,5.61,0,.92-1.31,4.94-3.51,6.28-4.59,1.33-1.08,3.11-2.31,3.28-.89.17,1.42-4.5,4.1-3,5.48s6.72,1.63,9.03-.79,4.61-3.19,4.72-2.61c.11.58-1.25,2.72-.33,3.89.92,1.17,2.5,1.03,4.39.61,1.89-.42,2.83-1.11,4.61-2.22s3.53-1.5,2.67-.06c-.86,1.44-2.06,4.19,1.83,4.31,3.89.11,6.31-.61,7.44-1.56,1.14-.94,3.5-3.26,4.67-1.57,1.17,1.69-.61,3.46,2.36,5.05,2.97,1.58,5.56-1.06,5.78,0s-10.78,2.39-13.61,6.56,1.36,11.64,7.39,7.5c6.03-4.14,15.28-13.83,20.17-14.94s13.92-8.33,8.81-10.56Zm-112.27,2.28c-1.19-.03-4.63.64-3.17-1.22.27-.34,4.17-5.46,6.83-7.89,2.67-2.42,9.83-6.31,11.94-4.28s-1.03,6.83-5.56,8.61c-4.53,1.78-8.86,4.81-10.06,4.78Z"/>
      <path class="cls-1" d="m266.44,32.03c1.02-.09,5.76-3.54,6.18-6.15s-2.61-2.81-5.37-2.11c-2.76.7-4.33,6.93-4.33,6.93-.66,2.05,2.5,1.43,3.52,1.33Z"/>
      <path class="cls-1" d="m162.3,37.63c6.19-2.39,26.47-13.97,31.3-23.22,4.83-9.25,3.69-10.25.33-9.67-3.36.58-12.53,3.28-21.83,12.55-9.31,9.28-17.61,19.83-19.72,23.72-3.08,1.83-5.61,3.25-5.42,1.72,0,0,11.92-9.97,5.44-14.05-6.47-4.08-15.92-.17-21.78,6.33s-9.11,6.5-10.44,8.89-3.86,10.39,7.33,7.83c11.19-2.56,12.94-5.44,14.61-4.39s5.22,2.28,8.56-.61c1.06,2.14,2.89,6.8,6.83,5.5s-.28-5.66-.56-6.66c-.28-1-.86-5.56,5.33-7.94Zm20.14-25.17c4.78-2.81,11.53-6.36,11.33-5.33s-2.78,7.06-6.61,9.56c-3.83,2.5-23.14,20.25-24.67,15.61,0,0,15.17-17.03,19.94-19.83Zm-38.49,27.41c-2.87,1.57-18.48,8.94-16.63,5.15,0,0,4.91-7.68,8.15-9.33,3.24-1.65,5.7-4.37,7.89-5.07,2.19-.7,6-1.61,6.22.56.22,2.17-2.76,7.13-5.63,8.7Z"/>
    </g>
  </g>
</svg>